<svg version="1.1" id="Layer_1" xmlns="http://www.w3.org/2000/svg" xmlns:xlink="http://www.w3.org/1999/xlink" x="0px" y="0px"
	 width="100%" viewBox="0 0 512 512" enable-background="new 0 0 512 512" xml:space="preserve">
<path fill="#000000" opacity="1.000000" stroke="none" 
	d="
M346.000000,513.000000 
	C230.694687,513.000000 115.889366,513.000000 1.042022,513.000000 
	C1.042022,342.402985 1.042022,171.805969 1.042022,1.104477 
	C171.555328,1.104477 342.110718,1.104477 512.833069,1.104477 
	C512.833069,171.666534 512.833069,342.333252 512.833069,513.000000 
	C457.472565,513.000000 401.986298,513.000000 346.000000,513.000000 
M206.031250,393.878448 
	C204.548645,416.061768 228.652451,429.622070 246.236862,419.253510 
	C248.960297,417.112549 251.683746,414.971588 254.886368,412.265869 
	C256.535248,407.842896 258.184113,403.419922 260.214996,398.274750 
	C261.087921,392.515686 261.960846,386.756622 263.214935,380.275085 
	C264.421387,374.183075 265.627808,368.091095 266.969543,361.148041 
	C267.924713,355.098022 268.879883,349.047974 269.970612,342.159760 
	C270.924988,335.772339 271.879364,329.384888 273.211700,322.273071 
	C274.418762,314.847504 275.625824,307.421967 277.211823,299.272247 
	C277.688019,297.075836 278.276215,294.896820 278.619843,292.679840 
	C279.739075,285.458832 280.768951,278.223969 281.996124,270.195404 
	C283.701752,260.145294 285.407379,250.095169 287.788666,239.592575 
	C289.470093,229.727234 291.151520,219.861908 292.969269,209.144913 
	C293.175385,207.717316 293.376984,206.289062 293.588440,204.862259 
	C294.668762,197.573227 295.751617,190.284576 297.210052,182.268768 
	C298.735382,174.174469 300.260742,166.080154 301.963867,157.141647 
	C303.253662,148.759842 304.543427,140.378052 306.002136,131.179367 
	C306.393158,128.962189 306.637115,126.706970 307.199188,124.534042 
	C310.682220,111.069069 303.504150,99.726242 293.446808,94.297012 
	C282.267487,88.262123 267.880554,90.886818 259.284058,101.287094 
	C253.934433,108.665337 252.925125,117.293793 251.998352,126.802803 
	C250.627808,134.854691 249.257248,142.906586 247.201599,151.403122 
	C245.857208,159.601593 244.512802,167.800049 243.024445,176.845276 
	C241.405090,186.562454 239.785751,196.279633 238.023041,206.828934 
	C237.900452,207.795471 237.803345,208.766022 237.651291,209.727905 
	C236.161667,219.151611 234.662872,228.573868 232.786987,238.719406 
	C231.151794,248.466736 229.516602,258.214050 227.207703,268.417694 
	C226.108368,275.936462 225.009033,283.455261 223.246490,291.440765 
	C222.481308,297.257507 221.716125,303.074280 220.265961,309.347015 
	C219.232895,316.230988 218.199829,323.114929 216.996002,330.805634 
	C216.052765,336.537048 215.109528,342.268494 213.784027,348.722626 
	C212.817108,354.802307 211.850204,360.882019 210.218567,367.421356 
	C209.534561,371.613159 208.850555,375.804962 208.029251,380.831360 
	C207.408630,384.886810 206.788025,388.942261 206.031250,393.878448 
M423.062378,181.923782 
	C423.062378,181.923782 423.008087,181.920105 422.768463,181.301407 
	C417.845154,176.702499 412.807678,172.218979 408.020782,167.482239 
	C395.622498,155.213776 383.156738,143.005020 371.061432,130.441681 
	C362.116211,121.150368 351.947784,118.794510 339.305115,123.228081 
	C335.498627,126.804970 331.692169,130.381851 327.231354,134.261398 
	C326.116394,137.826874 325.001434,141.392349 323.195526,145.402679 
	C323.852386,149.601212 324.509247,153.799728 325.238617,158.700531 
	C328.884247,167.420349 336.520599,172.677979 343.159607,179.656754 
	C359.727264,196.121399 376.294922,212.586044 393.142822,229.666718 
	C402.226013,238.726746 411.309204,247.786774 421.397491,257.849304 
	C417.587830,261.134491 414.222534,264.036530 410.250305,267.203491 
	C404.819946,272.761841 399.389587,278.320221 393.343201,284.156586 
	C386.184326,291.423157 379.025452,298.689728 371.261322,306.221863 
	C365.470215,312.133881 359.679108,318.045898 353.280670,324.223236 
	C347.815674,329.801056 342.350677,335.378876 336.279480,341.225067 
	C331.923035,346.068451 325.921661,349.720154 324.213196,357.409729 
	C324.026428,358.539490 323.900574,359.683319 323.643433,360.796814 
	C321.317047,370.869781 324.643250,379.677704 331.889130,386.022522 
	C341.340057,394.298248 354.217163,396.204803 366.672516,387.822296 
	C371.463928,382.918182 376.255341,378.014038 381.658051,372.826111 
	C387.121094,367.253479 392.584137,361.680847 398.658783,355.825378 
	C405.140717,349.567230 411.622620,343.309052 418.710968,336.779877 
	C424.485474,330.897003 430.259949,325.014160 436.648743,318.844147 
	C442.780548,312.599487 448.912384,306.354858 455.658112,299.830627 
	C460.897064,294.515442 466.136017,289.200226 471.968018,283.504211 
	C474.484283,280.936676 477.000549,278.369141 479.847076,275.602539 
	C479.847076,275.602539 479.904419,275.221191 480.422668,274.981567 
	C480.555481,274.661682 480.688293,274.341766 481.079010,273.442932 
	C481.849060,272.253754 482.619110,271.064575 483.917053,269.293152 
	C484.646912,266.545258 485.376740,263.797333 486.805237,260.591187 
	C487.730255,250.134140 483.945892,241.648743 475.781891,234.277466 
	C458.502594,217.113831 441.223267,199.950211 423.831207,182.360031 
	C423.638916,182.099030 423.380524,181.971619 423.062378,181.923782 
M175.229355,390.260162 
	C177.718353,388.724426 180.207352,387.188721 183.214981,385.216522 
	C185.087723,381.932312 186.960480,378.648071 189.052048,374.669739 
	C191.390701,369.890594 192.011963,365.019928 189.966064,359.243927 
	C188.250168,355.602173 187.327087,351.197784 184.682877,348.449066 
	C172.398148,335.678741 159.636673,323.367035 146.772858,310.287109 
	C129.058456,292.345581 111.344048,274.404022 93.393211,256.223022 
	C93.553375,256.080261 94.265068,255.445862 95.640221,254.734253 
	C101.469772,248.841415 107.299316,242.948563 113.729927,236.778427 
	C119.187721,231.202271 124.645515,225.626114 130.707016,219.772812 
	C134.816650,215.553757 138.926285,211.334686 143.648392,206.831024 
	C150.467484,199.904922 157.286575,192.978836 164.711105,185.779816 
	C171.178772,179.201904 177.646439,172.624008 184.745712,165.747208 
	C185.843750,163.760178 187.002182,161.803848 188.030365,159.781296 
	C196.687302,142.752075 184.345657,121.916733 164.587494,121.048279 
	C154.044220,120.584846 146.110199,125.673729 139.334457,134.169510 
	C132.873489,140.743500 126.412506,147.317474 119.337540,154.169144 
	C113.543434,160.075012 107.749329,165.980881 101.327438,172.173126 
	C96.204704,177.076553 91.081963,181.979980 85.344414,187.164047 
	C79.511322,193.100616 73.678230,199.037201 67.248894,205.242081 
	C61.797054,210.813889 56.345215,216.385696 50.286652,222.225174 
	C46.156506,226.466110 42.026360,230.707031 37.285763,235.226166 
	C34.479397,239.460876 31.673031,243.695587 28.189808,248.379562 
	C28.181969,253.252823 28.174129,258.126068 28.030634,263.758575 
	C29.367266,266.683655 30.088064,270.169678 32.150394,272.433716 
	C39.825233,280.859283 47.940903,288.883362 56.175045,297.666412 
	C69.726608,311.109741 83.278183,324.553040 97.144760,338.621185 
	C99.507790,340.658569 102.004257,342.561676 104.212044,344.755310 
	C117.784241,358.240509 131.495148,371.595673 144.737747,385.399109 
	C151.841629,392.803772 165.229919,395.241852 175.229355,390.260162 
z"/>
<path fill="#006BDA" opacity="1.000000" stroke="none" 
	d="
M28.866659,247.930283 
	C31.673031,243.695587 34.479397,239.460876 37.880081,235.266739 
	C40.377522,236.912079 42.184181,238.650742 44.198177,240.101608 
	C76.823700,263.604980 109.460281,287.093170 142.184891,310.457977 
	C143.326401,311.272980 145.404343,310.776428 147.045822,310.891174 
	C159.636673,323.367035 172.398148,335.678741 184.682877,348.449066 
	C187.327087,351.197784 188.250168,355.602173 189.542603,359.591492 
	C187.353027,359.075928 185.428894,358.435974 183.845398,357.314941 
	C168.624176,346.538818 153.454422,335.689911 138.281357,324.845825 
	C109.019791,303.932861 79.804436,282.954834 50.480183,262.130157 
	C43.456486,257.142273 36.080574,252.650330 28.866659,247.930283 
z"/>
<path fill="#0065DC" opacity="1.000000" stroke="none" 
	d="
M28.528231,248.154922 
	C36.080574,252.650330 43.456486,257.142273 50.480183,262.130157 
	C79.804436,282.954834 109.019791,303.932861 138.281357,324.845825 
	C153.454422,335.689911 168.624176,346.538818 183.845398,357.314941 
	C185.428894,358.435974 187.353027,359.075928 189.476379,359.969604 
	C192.011963,365.019928 191.390701,369.890594 188.543716,374.904480 
	C186.292130,374.204407 184.426987,373.441711 182.824936,372.307404 
	C170.208069,363.374207 157.637238,354.375916 145.060242,345.386505 
	C113.144859,322.574829 81.265541,299.712494 49.295559,276.977631 
	C42.417358,272.086304 35.217819,267.646881 28.166294,262.999329 
	C28.174129,258.126068 28.181969,253.252823 28.528231,248.154922 
z"/>
<path fill="#00D6BC" opacity="1.000000" stroke="none" 
	d="
M323.886475,144.957840 
	C325.001434,141.392349 326.116394,137.826874 327.903381,134.195679 
	C333.916931,137.776337 339.325043,141.329315 344.588837,145.084625 
	C373.940887,166.024948 403.254059,187.019791 432.588898,207.984222 
	C445.026215,216.872635 457.448425,225.783157 469.973999,234.545746 
	C471.678040,235.737808 473.826477,238.699066 476.043884,234.887268 
	C483.945892,241.648743 487.730255,250.134140 486.165588,260.640747 
	C483.422241,259.061035 481.369110,257.361237 479.207153,255.813339 
	C454.701813,238.268356 430.192169,220.729279 405.658997,203.223251 
	C378.414795,183.782761 351.145081,164.378098 323.886475,144.957840 
z"/>
<path fill="#00DCBA" opacity="1.000000" stroke="none" 
	d="
M475.912903,234.582367 
	C473.826477,238.699066 471.678040,235.737808 469.973999,234.545746 
	C457.448425,225.783157 445.026215,216.872635 432.588898,207.984222 
	C403.254059,187.019791 373.940887,166.024948 344.588837,145.084625 
	C339.325043,141.329315 333.916931,137.776337 328.230591,134.044342 
	C331.692169,130.381851 335.498627,126.804970 339.743927,123.519035 
	C341.516205,125.244110 342.652863,126.952759 344.212799,128.071014 
	C365.966309,143.665253 387.721313,159.259033 409.624908,174.640869 
	C413.753754,177.540344 418.530365,179.517395 423.008087,181.920105 
	C423.008087,181.920105 423.062378,181.923782 423.187256,182.110077 
	C423.489532,182.502594 423.700165,182.666000 423.943970,182.786575 
	C441.223267,199.950211 458.502594,217.113831 475.912903,234.582367 
z"/>
<path fill="#0060DD" opacity="1.000000" stroke="none" 
	d="
M28.098465,263.378967 
	C35.217819,267.646881 42.417358,272.086304 49.295559,276.977631 
	C81.265541,299.712494 113.144859,322.574829 145.060242,345.386505 
	C157.637238,354.375916 170.208069,363.374207 182.824936,372.307404 
	C184.426987,373.441711 186.292130,374.204407 188.434296,375.251556 
	C186.960480,378.648071 185.087723,381.932312 182.640350,385.179199 
	C180.258240,383.682037 178.518860,382.127106 176.633179,380.776398 
	C138.568207,353.510162 100.503326,326.243652 62.354061,299.095734 
	C60.603092,297.849731 58.063419,297.712036 55.891090,297.058136 
	C47.940903,288.883362 39.825233,280.859283 32.150394,272.433716 
	C30.088064,270.169678 29.367266,266.683655 28.098465,263.378967 
z"/>
<path fill="#00A4CA" opacity="1.000000" stroke="none" 
	d="
M287.113037,240.045044 
	C285.407379,250.095169 283.701752,260.145294 281.579773,270.514984 
	C275.493927,267.099152 269.760712,263.456207 264.168610,259.608276 
	C253.791168,252.467545 243.496078,245.207123 233.166687,237.996536 
	C234.662872,228.573868 236.161667,219.151611 237.651291,209.727905 
	C237.803345,208.766022 237.900452,207.795471 238.420181,206.504501 
	C240.921967,207.484039 243.103973,208.679062 245.118866,210.109451 
	C259.136353,220.060654 273.119110,230.060684 287.113037,240.045044 
z"/>
<path fill="#0071D8" opacity="1.000000" stroke="none" 
	d="
M146.909332,310.589142 
	C145.404343,310.776428 143.326401,311.272980 142.184891,310.457977 
	C109.460281,287.093170 76.823700,263.604980 44.198177,240.101608 
	C42.184181,238.650742 40.377522,236.912079 38.185303,235.127625 
	C42.026360,230.707031 46.156506,226.466110 50.885498,222.267029 
	C64.420395,231.512253 77.385300,240.675613 90.259445,249.964737 
	C92.060127,251.263992 93.415329,253.180634 94.976746,254.811462 
	C94.265068,255.445862 93.553375,256.080261 93.393211,256.223022 
	C111.344048,274.404022 129.058456,292.345581 146.909332,310.589142 
z"/>
<path fill="#00D2BD" opacity="1.000000" stroke="none" 
	d="
M323.541016,145.180267 
	C351.145081,164.378098 378.414795,183.782761 405.658997,203.223251 
	C430.192169,220.729279 454.701813,238.268356 479.207153,255.813339 
	C481.369110,257.361237 483.422241,259.061035 485.816254,260.869843 
	C485.376740,263.797333 484.646912,266.545258 483.431946,269.261322 
	C481.390778,267.997101 479.884094,266.695648 478.270966,265.543182 
	C462.997589,254.630997 447.694397,243.760498 432.422211,232.846588 
	C398.770874,208.798416 365.146027,184.712967 331.451721,160.725159 
	C329.631805,159.429520 327.273682,158.889832 325.166107,157.998260 
	C324.509247,153.799728 323.852386,149.601212 323.541016,145.180267 
z"/>
<path fill="#00CCBF" opacity="1.000000" stroke="none" 
	d="
M392.862549,229.050690 
	C376.294922,212.586044 359.727264,196.121399 343.398315,179.366913 
	C346.001251,180.217590 348.591309,181.042053 350.696259,182.545578 
	C388.313568,209.414932 425.890839,236.340439 463.422455,263.329346 
	C468.929260,267.289276 474.158936,271.634583 479.516815,275.801605 
	C477.000549,278.369141 474.484283,280.936676 471.449554,283.371582 
	C470.584412,282.880920 470.283325,282.459076 469.884491,282.174042 
	C449.444031,267.566193 429.050659,252.891251 408.507202,238.429550 
	C403.548737,234.938995 398.090790,232.157990 392.862549,229.050690 
z"/>
<path fill="#00B0C7" opacity="1.000000" stroke="none" 
	d="
M287.450867,239.818817 
	C273.119110,230.060684 259.136353,220.060654 245.118866,210.109451 
	C243.103973,208.679062 240.921967,207.484039 238.491867,206.088440 
	C239.785751,196.279633 241.405090,186.562454 243.419312,176.513367 
	C253.959091,183.356781 264.057831,190.598724 274.266327,197.682465 
	C280.366302,201.915298 286.638275,205.900208 292.832947,209.996567 
	C291.151520,219.861908 289.470093,229.727234 287.450867,239.818817 
z"/>
<path fill="#0098CD" opacity="1.000000" stroke="none" 
	d="
M232.976837,238.357971 
	C243.496078,245.207123 253.791168,252.467545 264.168610,259.608276 
	C269.760712,263.456207 275.493927,267.099152 281.498352,270.914490 
	C280.768951,278.223969 279.739075,285.458832 278.619843,292.679840 
	C278.276215,294.896820 277.688019,297.075836 276.672668,299.602661 
	C274.967194,299.351959 273.699127,298.913940 272.650085,298.167908 
	C260.620483,289.612885 248.672821,280.941589 236.581085,272.475891 
	C233.928055,270.618469 230.793961,269.448151 227.881409,267.961395 
	C229.516602,258.214050 231.151794,248.466736 232.976837,238.357971 
z"/>
<path fill="#00A4CA" opacity="1.000000" stroke="none" 
	d="
M184.114105,166.046097 
	C177.646439,172.624008 171.178772,179.201904 164.095825,185.762695 
	C155.116638,179.828659 146.688644,173.999649 138.409714,167.966095 
	C132.158188,163.410110 126.097282,158.592575 119.951530,153.891464 
	C126.412506,147.317474 132.873489,140.743500 139.877960,134.276520 
	C154.985687,144.937698 169.549896,155.491898 184.114105,166.046097 
z"/>
<path fill="#00AEC8" opacity="1.000000" stroke="none" 
	d="
M371.866547,305.956299 
	C379.025452,298.689728 386.184326,291.423157 393.685669,284.385986 
	C395.359100,286.414520 396.353638,288.670410 398.075623,289.938507 
	C409.163666,298.103973 420.450317,305.999481 431.565369,314.129059 
	C433.330414,315.420013 434.558258,317.445435 436.034454,319.131287 
	C430.259949,325.014160 424.485474,330.897003 418.093933,336.761230 
	C409.582764,331.271057 401.737915,325.726624 393.779938,320.349640 
	C386.539337,315.457306 379.175873,310.746887 371.866547,305.956299 
z"/>
<path fill="#00BAC4" opacity="1.000000" stroke="none" 
	d="
M436.341614,318.987732 
	C434.558258,317.445435 433.330414,315.420013 431.565369,314.129059 
	C420.450317,305.999481 409.163666,298.103973 398.075623,289.938507 
	C396.353638,288.670410 395.359100,286.414520 393.993713,284.247009 
	C399.389587,278.320221 404.819946,272.761841 410.851807,267.247375 
	C422.141449,274.893555 432.909088,282.387695 443.477722,290.152679 
	C447.565338,293.155914 451.202057,296.772858 455.044189,300.110199 
	C448.912384,306.354858 442.780548,312.599487 436.341614,318.987732 
z"/>
<path fill="#00CFBE" opacity="1.000000" stroke="none" 
	d="
M305.833221,131.996246 
	C304.543427,140.378052 303.253662,148.759842 301.534515,157.483765 
	C299.193298,156.876266 297.119019,156.156677 295.395630,154.940109 
	C283.329224,146.422195 271.377075,137.741959 259.278503,129.270599 
	C257.174805,127.797615 254.550812,127.067734 252.167130,125.994637 
	C252.925125,117.293793 253.934433,108.665337 259.911072,101.276062 
	C266.757904,105.398193 273.014008,109.477982 279.188843,113.677216 
	C288.101196,119.738121 296.954651,125.885674 305.833221,131.996246 
z"/>
<path fill="#00BBC4" opacity="1.000000" stroke="none" 
	d="
M292.901123,209.570740 
	C286.638275,205.900208 280.366302,201.915298 274.266327,197.682465 
	C264.057831,190.598724 253.959091,183.356781 243.491272,176.089981 
	C244.512802,167.800049 245.857208,159.601593 247.896942,151.258148 
	C249.911026,151.784561 251.340027,152.301422 252.531570,153.151184 
	C264.940491,162.000793 277.269897,170.962585 289.732849,179.734894 
	C291.827209,181.209061 294.453217,181.927917 296.833557,182.995773 
	C295.751617,190.284576 294.668762,197.573227 293.588440,204.862259 
	C293.376984,206.289062 293.175385,207.717316 292.901123,209.570740 
z"/>
<path fill="#0098CD" opacity="1.000000" stroke="none" 
	d="
M119.644531,154.030304 
	C126.097282,158.592575 132.158188,163.410110 138.409714,167.966095 
	C146.688644,173.999649 155.116638,179.828659 163.793121,185.899170 
	C157.286575,192.978836 150.467484,199.904922 143.327454,206.587952 
	C141.650116,204.219284 140.743546,201.500153 138.858765,200.071732 
	C131.064194,194.164474 122.869507,188.787231 115.031403,182.934586 
	C110.467499,179.526749 106.300690,175.587097 101.955215,171.886734 
	C107.749329,165.980881 113.543434,160.075012 119.644531,154.030304 
z"/>
<path fill="#00A4CA" opacity="1.000000" stroke="none" 
	d="
M371.563934,306.089081 
	C379.175873,310.746887 386.539337,315.457306 393.779938,320.349640 
	C401.737915,325.726624 409.582764,331.271057 417.790710,336.896729 
	C411.622620,343.309052 405.140717,349.567230 398.173096,355.675049 
	C394.745819,353.144836 391.923187,350.596893 388.841431,348.414948 
	C377.235992,340.198029 365.546173,332.100281 353.887970,323.957916 
	C359.679108,318.045898 365.470215,312.133881 371.563934,306.089081 
z"/>
<path fill="#00C5C1" opacity="1.000000" stroke="none" 
	d="
M455.351135,299.970398 
	C451.202057,296.772858 447.565338,293.155914 443.477722,290.152679 
	C432.909088,282.387695 422.141449,274.893555 411.155243,267.114929 
	C414.222534,264.036530 417.587830,261.134491 421.397491,257.849304 
	C411.309204,247.786774 402.226013,238.726746 393.002686,229.358704 
	C398.090790,232.157990 403.548737,234.938995 408.507202,238.429550 
	C429.050659,252.891251 449.444031,267.566193 469.884491,282.174042 
	C470.283325,282.459076 470.584412,282.880920 471.153015,283.561951 
	C466.136017,289.200226 460.897064,294.515442 455.351135,299.970398 
z"/>
<path fill="#00C5C1" opacity="1.000000" stroke="none" 
	d="
M297.021790,182.632263 
	C294.453217,181.927917 291.827209,181.209061 289.732849,179.734894 
	C277.269897,170.962585 264.940491,162.000793 252.531570,153.151184 
	C251.340027,152.301422 249.911026,151.784561 248.239471,151.035828 
	C249.257248,142.906586 250.627808,134.854691 252.082733,126.398720 
	C254.550812,127.067734 257.174805,127.797615 259.278503,129.270599 
	C271.377075,137.741959 283.329224,146.422195 295.395630,154.940109 
	C297.119019,156.156677 299.193298,156.876266 301.445618,157.905853 
	C300.260742,166.080154 298.735382,174.174469 297.021790,182.632263 
z"/>
<path fill="#0085D3" opacity="1.000000" stroke="none" 
	d="
M67.845139,204.973785 
	C73.678230,199.037201 79.511322,193.100616 85.737778,187.364990 
	C88.703773,189.835449 91.107803,192.339096 93.878197,194.333984 
	C105.894920,202.986954 118.018539,211.491455 130.103302,220.049942 
	C124.645515,225.626114 119.187721,231.202271 113.114670,236.764679 
	C97.614647,226.158539 82.729889,215.566162 67.845139,204.973785 
z"/>
<path fill="#0098CD" opacity="1.000000" stroke="none" 
	d="
M353.584320,324.090576 
	C365.546173,332.100281 377.235992,340.198029 388.841431,348.414948 
	C391.923187,350.596893 394.745819,353.144836 397.867310,355.816498 
	C392.584137,361.680847 387.121094,367.253479 381.170959,372.676819 
	C380.124908,371.923096 379.651550,371.197937 378.994385,370.732025 
	C364.970551,360.789459 350.926117,350.875916 336.885712,340.956726 
	C342.350677,335.378876 347.815674,329.801056 353.584320,324.090576 
z"/>
<path fill="#007BD6" opacity="1.000000" stroke="none" 
	d="
M67.547012,205.107941 
	C82.729889,215.566162 97.614647,226.158539 112.814133,236.903320 
	C107.299316,242.948563 101.469772,248.841415 95.308487,254.772858 
	C93.415329,253.180634 92.060127,251.263992 90.259445,249.964737 
	C77.385300,240.675613 64.420395,231.512253 51.188858,222.133209 
	C56.345215,216.385696 61.797054,210.813889 67.547012,205.107941 
z"/>
<path fill="#00CFBE" opacity="1.000000" stroke="none" 
	d="
M479.681946,275.702087 
	C474.158936,271.634583 468.929260,267.289276 463.422455,263.329346 
	C425.890839,236.340439 388.313568,209.414932 350.696259,182.545578 
	C348.591309,181.042053 346.001251,180.217590 343.260590,179.058411 
	C336.520599,172.677979 328.884247,167.420349 325.202362,158.349396 
	C327.273682,158.889832 329.631805,159.429520 331.451721,160.725159 
	C365.146027,184.712967 398.770874,208.798416 432.422211,232.846588 
	C447.694397,243.760498 462.997589,254.630997 478.270966,265.543182 
	C479.884094,266.695648 481.390778,267.997101 483.167999,269.552429 
	C482.619110,271.064575 481.849060,272.253754 480.781372,273.917542 
	C480.290619,274.668518 480.097504,274.944855 479.904419,275.221191 
	C479.904419,275.221191 479.847076,275.602539 479.681946,275.702087 
z"/>
<path fill="#005CDF" opacity="1.000000" stroke="none" 
	d="
M56.033066,297.362274 
	C58.063419,297.712036 60.603092,297.849731 62.354061,299.095734 
	C100.503326,326.243652 138.568207,353.510162 176.633179,380.776398 
	C178.518860,382.127106 180.258240,383.682037 182.381042,385.397461 
	C180.207352,387.188721 177.718353,388.724426 174.636261,390.202209 
	C152.151352,374.512390 130.318848,358.795990 108.305283,343.337463 
	C104.906075,340.950500 100.675720,339.747131 96.829750,337.996368 
	C83.278183,324.553040 69.726608,311.109741 56.033066,297.362274 
z"/>
<path fill="#00B0C7" opacity="1.000000" stroke="none" 
	d="
M184.429901,165.896652 
	C169.549896,155.491898 154.985687,144.937698 140.185425,134.138947 
	C146.110199,125.673729 154.044220,120.584846 164.587494,121.048279 
	C184.345657,121.916733 196.687302,142.752075 188.030365,159.781296 
	C187.002182,161.803848 185.843750,163.760178 184.429901,165.896652 
z"/>
<path fill="#008DD1" opacity="1.000000" stroke="none" 
	d="
M227.544556,268.189545 
	C230.793961,269.448151 233.928055,270.618469 236.581085,272.475891 
	C248.672821,280.941589 260.620483,289.612885 272.650085,298.167908 
	C273.699127,298.913940 274.967194,299.351959 276.483215,299.964722 
	C275.625824,307.421967 274.418762,314.847504 272.670868,322.603149 
	C270.239258,321.945526 268.212006,321.152283 266.480927,319.937134 
	C258.205444,314.128174 250.091812,308.086121 241.758698,302.362701 
	C235.944458,298.369293 229.868668,294.756714 223.909698,290.974030 
	C225.009033,283.455261 226.108368,275.936462 227.544556,268.189545 
z"/>
<path fill="#008ED0" opacity="1.000000" stroke="none" 
	d="
M130.405151,219.911377 
	C118.018539,211.491455 105.894920,202.986954 93.878197,194.333984 
	C91.107803,192.339096 88.703773,189.835449 86.045181,187.224670 
	C91.081963,181.979980 96.204704,177.076553 101.641327,172.029938 
	C106.300690,175.587097 110.467499,179.526749 115.031403,182.934586 
	C122.869507,188.787231 131.064194,194.164474 138.858765,200.071732 
	C140.743546,201.500153 141.650116,204.219284 143.021210,206.730255 
	C138.926285,211.334686 134.816650,215.553757 130.405151,219.911377 
z"/>
<path fill="#0085D3" opacity="1.000000" stroke="none" 
	d="
M223.578094,291.207397 
	C229.868668,294.756714 235.944458,298.369293 241.758698,302.362701 
	C250.091812,308.086121 258.205444,314.128174 266.480927,319.937134 
	C268.212006,321.152283 270.239258,321.945526 272.481873,322.965332 
	C271.879364,329.384888 270.924988,335.772339 269.545471,342.548767 
	C267.615906,342.290771 265.951202,341.874329 264.633911,340.958282 
	C257.686829,336.127258 250.766678,331.252655 243.953613,326.235107 
	C236.221832,320.540955 228.613144,314.679657 220.950958,308.891022 
	C221.716125,303.074280 222.481308,297.257507 223.578094,291.207397 
z"/>
<path fill="#008ED0" opacity="1.000000" stroke="none" 
	d="
M336.582581,341.090881 
	C350.926117,350.875916 364.970551,360.789459 378.994385,370.732025 
	C379.651550,371.197937 380.124908,371.923096 380.865295,372.818726 
	C376.255341,378.014038 371.463928,382.918182 366.282257,387.640381 
	C364.671448,385.933502 363.688873,384.099487 362.185547,382.941711 
	C357.743286,379.520569 353.133850,376.310669 348.518829,373.120850 
	C340.666901,367.693634 332.760712,362.344879 324.877319,356.963135 
	C325.921661,349.720154 331.923035,346.068451 336.582581,341.090881 
z"/>
<path fill="#0077D7" opacity="1.000000" stroke="none" 
	d="
M266.834259,361.999084 
	C265.627808,368.091095 264.421387,374.183075 262.690552,380.556274 
	C256.137146,376.746979 250.093369,372.678070 244.082474,368.561157 
	C234.099304,361.723633 224.137238,354.855286 214.166290,347.999908 
	C215.109528,342.268494 216.052765,336.537048 217.450089,330.412079 
	C219.537125,330.730682 221.349228,331.188995 222.774857,332.194977 
	C234.735336,340.634705 246.582489,349.235443 258.570068,357.636047 
	C261.101044,359.409698 264.068115,360.561035 266.834259,361.999084 
z"/>
<path fill="#007ED5" opacity="1.000000" stroke="none" 
	d="
M266.901917,361.573547 
	C264.068115,360.561035 261.101044,359.409698 258.570068,357.636047 
	C246.582489,349.235443 234.735336,340.634705 222.774857,332.194977 
	C221.349228,331.188995 219.537125,330.730682 217.535461,330.008728 
	C218.199829,323.114929 219.232895,316.230988 220.608459,309.119019 
	C228.613144,314.679657 236.221832,320.540955 243.953613,326.235107 
	C250.766678,331.252655 257.686829,336.127258 264.633911,340.958282 
	C265.951202,341.874329 267.615906,342.290771 269.477661,342.967834 
	C268.879883,349.047974 267.924713,355.098022 266.901917,361.573547 
z"/>
<path fill="#00D9BB" opacity="1.000000" stroke="none" 
	d="
M305.917664,131.587799 
	C296.954651,125.885674 288.101196,119.738121 279.188843,113.677216 
	C273.014008,109.477982 266.757904,105.398193 260.220795,101.111725 
	C267.880554,90.886818 282.267487,88.262123 293.446808,94.297012 
	C303.504150,99.726242 310.682220,111.069069 307.199188,124.534042 
	C306.637115,126.706970 306.393158,128.962189 305.917664,131.587799 
z"/>
<path fill="#006FD9" opacity="1.000000" stroke="none" 
	d="
M213.975159,348.361267 
	C224.137238,354.855286 234.099304,361.723633 244.082474,368.561157 
	C250.093369,372.678070 256.137146,376.746979 262.499939,380.917480 
	C261.960846,386.756622 261.087921,392.515686 259.690308,398.555786 
	C257.992767,398.234558 256.723175,397.767670 255.661835,397.009308 
	C243.252762,388.142212 230.922348,379.163910 218.444885,370.394653 
	C216.219376,368.830536 213.418472,368.085144 210.883270,366.961700 
	C211.850204,360.882019 212.817108,354.802307 213.975159,348.361267 
z"/>
<path fill="#00E2BA" opacity="1.000000" stroke="none" 
	d="
M422.888275,181.610748 
	C418.530365,179.517395 413.753754,177.540344 409.624908,174.640869 
	C387.721313,159.259033 365.966309,143.665253 344.212799,128.071014 
	C342.652863,126.952759 341.516205,125.244110 340.092560,123.488510 
	C351.947784,118.794510 362.116211,121.150368 371.061432,130.441681 
	C383.156738,143.005020 395.622498,155.213776 408.020782,167.482239 
	C412.807678,172.218979 417.845154,176.702499 422.888275,181.610748 
z"/>
<path fill="#0085D3" opacity="1.000000" stroke="none" 
	d="
M324.545258,357.186432 
	C332.760712,362.344879 340.666901,367.693634 348.518829,373.120850 
	C353.133850,376.310669 357.743286,379.520569 362.185547,382.941711 
	C363.688873,384.099487 364.671448,385.933502 365.985413,387.797974 
	C354.217163,396.204803 341.340057,394.298248 331.889130,386.022522 
	C324.643250,379.677704 321.317047,370.869781 323.643433,360.796814 
	C323.900574,359.683319 324.026428,358.539490 324.545258,357.186432 
z"/>
<path fill="#006BDA" opacity="1.000000" stroke="none" 
	d="
M210.550919,367.191528 
	C213.418472,368.085144 216.219376,368.830536 218.444885,370.394653 
	C230.922348,379.163910 243.252762,388.142212 255.661835,397.009308 
	C256.723175,397.767670 257.992767,398.234558 259.499268,398.916901 
	C258.184113,403.419922 256.535248,407.842896 254.420166,412.230042 
	C242.964951,404.241211 232.015213,396.233032 220.966644,388.363556 
	C216.818085,385.408752 212.439987,382.776215 208.166550,379.996765 
	C208.850555,375.804962 209.534561,371.613159 210.550919,367.191528 
z"/>
<path fill="#0058DF" opacity="1.000000" stroke="none" 
	d="
M96.987259,338.308777 
	C100.675720,339.747131 104.906075,340.950500 108.305283,343.337463 
	C130.318848,358.795990 152.151352,374.512390 174.358780,390.406403 
	C165.229919,395.241852 151.841629,392.803772 144.737747,385.399109 
	C131.495148,371.595673 117.784241,358.240509 104.212044,344.755310 
	C102.004257,342.561676 99.507790,340.658569 96.987259,338.308777 
z"/>
<path fill="#0065DC" opacity="1.000000" stroke="none" 
	d="
M208.097900,380.414062 
	C212.439987,382.776215 216.818085,385.408752 220.966644,388.363556 
	C232.015213,396.233032 242.964951,404.241211 254.180573,412.512451 
	C251.683746,414.971588 248.960297,417.112549 245.644226,419.199768 
	C235.924637,412.583038 226.874115,405.909637 217.632355,399.512451 
	C214.032440,397.020538 210.001831,395.150848 206.167404,392.997711 
	C206.788025,388.942261 207.408630,384.886810 208.097900,380.414062 
z"/>
<path fill="#0060DD" opacity="1.000000" stroke="none" 
	d="
M206.099319,393.438080 
	C210.001831,395.150848 214.032440,397.020538 217.632355,399.512451 
	C226.874115,405.909637 235.924637,412.583038 245.368439,419.404297 
	C228.652451,429.622070 204.548645,416.061768 206.099319,393.438080 
z"/>
<path fill="#00CCBF" opacity="1.000000" stroke="none" 
	d="
M480.163544,275.101379 
	C480.097504,274.944855 480.290619,274.668518 480.652405,274.207031 
	C480.688293,274.341766 480.555481,274.661682 480.163544,275.101379 
z"/>
<path fill="#00E2BA" opacity="1.000000" stroke="none" 
	d="
M423.887573,182.573303 
	C423.700165,182.666000 423.489532,182.502594 423.184082,182.137100 
	C423.380524,181.971619 423.638916,182.099030 423.887573,182.573303 
z"/>
</svg>